# xmcd
#
# Track frame offsets:
#	182
#	16297
#	31005
#	47552
#	65522
#	80585
#	93780
#	106255
#	124300
#	142515
#	160615
#	174172
#	189567
#	203177
#	217257
#	231622
#	246675
#	267395
#	280122
#	301452
#
# Disc length: 4204 seconds
#
# Revision: 1
# Processed by: cddbd v1.5.2PL0 Copyright (c) Steve Scherf et al.
# Submitted via: FairStars CD Ripper 1.80
#
DISCID=18106a14
DTITLE=Various Artist - Easy Listening Country - Sweet Songs Of Love
DYEAR=1995
DGENRE=Country
TTITLE0=Randy Travis - Forever And Ever, Amen
TTITLE1=The Forrester Sisters - I Fell In Love Again Last Night
TTITLE2=Highway 101 - (Do You Love Me) Just Say Yes
TTITLE3=Linda Ronstandt - Crazy
TTITLE4=T G Sheppard - Only One You
TTITLE5=Margo Smith - Little Things Mean A Lot
TTITLE6=Johnny Lee - One In A Million
TTITLE7=Crystal Gayle - Straight To The Heart
TTITLE8=Dolly Parton - Those Memories Of You
TTITLE9=Eddie Rabbit - You And I
TTITLE10=The Bellamy Brothers - Do You Love As Good As You Look
TTITLE11=Conway Twitty - Ain't She Somethin' Else
TTITLE12=Tompall And The Glaser Brothers - Lovin' Her Was Easier (Than Anything I'll Ever Do Again)
TTITLE13=Randy Travis - Forever Together
TTITLE14=Donna Fargo - Do I Love You (Yes In Every Way)
TTITLE15=Michael Martin Murphy - A Long Line Of Love
TTITLE16=Hank Williams Jr - Ain't Misbehaven'
TTITLE17=Susie Allanson - We Belong Together
TTITLE18=Gary Morris - The Wind Beneath My Wings
TTITLE19=Emmylou Harris - Sweet Dreams
EXTD=
EXTT0=
EXTT1=
EXTT2=
EXTT3=
EXTT4=
EXTT5=
EXTT6=
EXTT7=
EXTT8=
EXTT9=
EXTT10=
EXTT11=
EXTT12=
EXTT13=
EXTT14=
EXTT15=
EXTT16=
EXTT17=
EXTT18=
EXTT19=
PLAYORDER=
